# xmcd
#
# Track frame offsets: 
#        150
#        28879
#        52091
#        83518
#        124727
#        137037
#
# Disc length: 2264 seconds
#
# Revision: 0
# Processed by: cddbd v1.5.2PL0 Copyright (c) Steve Scherf et al.
# Submitted via: ExactAudioCopy v1.0b1
#
DISCID=4d08d606
DTITLE=Woods Of Desolation - Torn Beyond Reason
DYEAR=2011
DGENRE=Depressive Black Metal
TTITLE0=Torn Beyond Reason
TTITLE1=Darker Days
TTITLE2=An Unbroken Moment
TTITLE3=The Inevitable End
TTITLE4=November
TTITLE5=Somehow...
EXTD=
EXTT0=
EXTT1=
EXTT2=
EXTT3=
EXTT4=
EXTT5=
PLAYORDER=
